<svg id="low-poly" width="264" height="264" xmlns="http://www.w3.org/2000/svg"
  fill="currentColor" stroke="currentColor">
  <path d="M258,121,229,108,249,81" color="rgb(234,0,18)"></path>
  <path d="M258,121,216,122,229,108" color="rgb(0,0,5)"></path>
  <path d="M258,121,258,144,216,122" color="rgb(0,0,5)"></path>
  <path d="M249,81,230,88,234,78" color="rgb(234,0,18)"></path>
  <path d="M249,81,229,108,230,88" color="rgb(234,0,18)"></path>
  <path d="M249,81,220,56,221,40" color="rgb(234,0,18)"></path>
  <path d="M249,81,234,78,220,56" color="rgb(234,0,18)"></path>
  <path d="M221,40,215,49,203.5,47.5" color="rgb(234,0,18)"></path>
  <path d="M221,40,220,56,215,49" color="rgb(234,0,18)"></path>
  <path d="M221,40,203.5,47.5,183,15" color="rgb(234,0,18)"></path>
  <path d="M183,15,194,55,164,69" color="rgb(234,0,18)"></path>
  <path d="M183,15,203.5,47.5,194,55" color="rgb(234,0,18)"></path>
  <path d="M183,15,164,69,151,64" color="rgb(234,0,18)"></path>
  <path d="M183,15,151,64,138,5" color="rgb(234,0,18)"></path>
  <path d="M138,5,114,62.5,97,9" color="rgb(234,0,18)"></path>
  <path d="M138,5,151,64,114,62.5" color="rgb(234,0,18)"></path>
  <path d="M97,9,114,62.5,99,69" color="rgb(234,0,18)"></path>
  <path d="M97,9,99,69,50,33" color="rgb(234,0,18)"></path>
  <path d="M50,33,53,101,22,65" color="rgb(234,0,18)"></path>
  <path d="M50,33,82,92,53,101" color="rgb(234,0,18)"></path>
  <path d="M50,33,99,69,82,92" color="rgb(234,0,18)"></path>
  <path d="M22,65,39,106,9,95" color="rgb(234,0,18)"></path>
  <path d="M22,65,53,101,39,106" color="rgb(234,0,18)"></path>
  <path d="M9,95,34,108,5,121" color="rgb(234,0,18)"></path>
  <path d="M9,95,39,106,34,108" color="rgb(234,0,18)"></path>
  <path d="M5,121,7,142,5,148" color="rgb(0,0,5)"></path>
  <path d="M5,121,34,108,30,129" color="rgb(0,0,5)"></path>
  <path d="M5,121,30,129,7,142" color="rgb(0,0,5)"></path>
  <path d="M203.5,47.5,202,74,194,55" color="rgb(255,255,255)"></path>
  <path d="M203.5,47.5,214,73,202,74" color="rgb(255,255,255)"></path>
  <path d="M203.5,47.5,220,56,219,68" color="rgb(255,255,255)"></path>
  <path d="M203.5,47.5,215,49,220,56" color="rgb(255,255,255)"></path>
  <path d="M203.5,47.5,219,68,214,73" color="rgb(255,255,255)"></path>
  <path d="M194,55,202,74,194,67" color="rgb(255,255,255)"></path>
  <path d="M194,55,194,67,164,69" color="rgb(234,0,18)"></path>
  <path d="M194,67,202,74,181,92" color="rgb(234,0,18)"></path>
  <path d="M194,67,181,92,164,69" color="rgb(234,0,18)"></path>
  <path d="M202,74,210,101,181,92" color="rgb(234,0,18)"></path>
  <path d="M202,74,214,73,220,83" color="rgb(234,0,18)"></path>
  <path d="M202,74,220,83,210,101" color="rgb(234,0,18)"></path>
  <path d="M214,73,219,68,225.5,74.5" color="rgb(234,0,18)"></path>
  <path d="M214,73,225.5,74.5,220,83" color="rgb(234,0,18)"></path>
  <path d="M219,68,220,56,225.5,74.5" color="rgb(234,0,18)"></path>
  <path d="M220,56,234,78,225.5,74.5" color="rgb(234,0,18)"></path>
  <path d="M114,62.5,94,78,99,69" color="rgb(178,178,178)"></path>
  <path d="M114,62.5,113,72,94,78" color="rgb(0,0,5)"></path>
  <path d="M114,62.5,123.5,68.5,113,72" color="rgb(0,0,5)"></path>
  <path d="M114,62.5,151,64,123.5,68.5" color="rgb(0,0,5)"></path>
  <path d="M99,69,94,78,82,92" color="rgb(255,255,255)"></path>
  <path d="M82,92,88,93,53,101" color="rgb(255,255,255)"></path>
  <path d="M82,92,94,78,88,93" color="rgb(255,255,255)"></path>
  <path d="M151,64,169,78,150,72" color="rgb(0,0,5)"></path>
  <path d="M151,64,150,72,123.5,68.5" color="rgb(0,0,5)"></path>
  <path d="M151,64,164,69,169,78" color="rgb(178,178,178)"></path>
  <path d="M94,78,113,72,102,83" color="rgb(0,0,5)"></path>
  <path d="M94,78,102,83,88,93" color="rgb(0,0,5)"></path>
  <path d="M88,93,79.5,113.5,53,101" color="rgb(0,0,5)"></path>
  <path d="M88,93,88,113,79.5,113.5" color="rgb(0,0,5)"></path>
  <path d="M88,93,98,111,88,113" color="rgb(0,0,5)"></path>
  <path d="M88,93,102,83,98,111" color="rgb(0,0,5)"></path>
  <path d="M53,101,30,129,39,106" color="rgb(0,0,5)"></path>
  <path d="M53,101,79.5,113.5,30,129" color="rgb(0,0,5)"></path>
  <path d="M181,92,210,101,175,93" color="rgb(255,255,255)"></path>
  <path d="M181,92,175,93,169,78" color="rgb(255,255,255)"></path>
  <path d="M181,92,169,78,164,69" color="rgb(255,255,255)"></path>
  <path d="M210,101,175,113,175,93" color="rgb(0,0,5)"></path>
  <path d="M210,101,220,83,224,106" color="rgb(234,0,18)"></path>
  <path d="M210,101,216,122,175,113" color="rgb(0,0,5)"></path>
  <path d="M210,101,224,106,216,122" color="rgb(0,0,5)"></path>
  <path d="M175,93,165,93,169,78" color="rgb(0,0,5)"></path>
  <path d="M175,93,175,113,165,93" color="rgb(0,0,5)"></path>
  <path d="M169,78,165,93,150,72" color="rgb(0,0,5)"></path>
  <path d="M39,106,30,129,34,108" color="rgb(0,0,5)"></path>
  <path d="M224,106,229,108,216,122" color="rgb(0,0,5)"></path>
  <path d="M224,106,230,88,229,108" color="rgb(234,0,18)"></path>
  <path d="M224,106,220,83,230,88" color="rgb(234,0,18)"></path>
  <path d="M123.5,68.5,153,108,108,105" color="rgb(255,255,255)"></path>
  <path d="M123.5,68.5,108,105,113,72" color="rgb(255,255,255)"></path>
  <path d="M123.5,68.5,150,72,153,108" color="rgb(255,255,255)"></path>
  <path d="M113,72,108,105,102,83" color="rgb(255,255,255)"></path>
  <path d="M102,83,108,105,98,111" color="rgb(255,255,255)"></path>
  <path d="M98,111,113,131,93,127" color="rgb(0,0,5)"></path>
  <path d="M98,111,108,105,114,117" color="rgb(255,255,255)"></path>
  <path d="M98,111,114,117,113,131" color="rgb(255,255,255)"></path>
  <path d="M98,111,93,127,88,113" color="rgb(0,0,5)"></path>
  <path d="M113,131,127,126,140,135" color="rgb(255,255,255)"></path>
  <path d="M113,131,140,135,127,148" color="rgb(0,0,5)"></path>
  <path d="M113,131,114,117,127,126" color="rgb(255,255,255)"></path>
  <path d="M113,131,127,148,105,140" color="rgb(0,0,5)"></path>
  <path d="M113,131,105,140,93,127" color="rgb(0,0,5)"></path>
  <path d="M140,135,127,126,145,120.5" color="rgb(255,255,255)"></path>
  <path d="M140,135,161,120,158,140" color="rgb(0,0,5)"></path>
  <path d="M140,135,158,140,127,148" color="rgb(0,0,5)"></path>
  <path d="M140,135,145,120.5,161,120" color="rgb(255,255,255)"></path>
  <path d="M161,120,170,127,158,140" color="rgb(0,0,5)"></path>
  <path d="M161,120,153,108,165,93" color="rgb(255,255,255)"></path>
  <path d="M161,120,145,120.5,153,108" color="rgb(255,255,255)"></path>
  <path d="M161,120,175,113,170,127" color="rgb(0,0,5)"></path>
  <path d="M161,120,165,93,175,113" color="rgb(0,0,5)"></path>
  <path d="M165,93,153,108,150,72" color="rgb(255,255,255)"></path>
  <path d="M225.5,74.5,234,78,230,88" color="rgb(255,255,255)"></path>
  <path d="M225.5,74.5,230,88,220,83" color="rgb(255,255,255)"></path>
  <path d="M153,108,145,120.5,125,121" color="rgb(255,255,255)"></path>
  <path d="M153,108,125,121,108,105" color="rgb(255,255,255)"></path>
  <path d="M145,120.5,127,126,125,121" color="rgb(0,0,0)"></path>
  <path d="M127,126,114,117,125,121" color="rgb(0,0,0)"></path>
  <path d="M114,117,108,105,125,121" color="rgb(255,255,255)"></path>
  <path d="M79.5,113.5,88,113,93,127" color="rgb(249,249,249)"></path>
  <path d="M79.5,113.5,93,127,30,129" color="rgb(245,245,245)"></path>
  <path d="M30,129,105,140,12,177" color="rgb(241,241,241)"></path>
  <path d="M30,129,93,127,105,140" color="rgb(247,247,247)"></path>
  <path d="M30,129,5,148,7,142" color="rgb(234,234,234)"></path>
  <path d="M30,129,12,177,5,148" color="rgb(234,234,234)"></path>
  <path d="M12,177,105,140,28,207" color="rgb(239,239,239)"></path>
  <path d="M28,207,105,140,55,234" color="rgb(240,240,240)"></path>
  <path d="M55,234,105,140,85,250" color="rgb(240,240,240)"></path>
  <path d="M85,250,105,140,127,148" color="rgb(247,247,247)"></path>
  <path d="M85,250,127,148,138,258" color="rgb(240,240,240)"></path>
  <path d="M138,258,127,148,183,248" color="rgb(241,241,241)"></path>
  <path d="M183,248,158,140,225,219" color="rgb(240,240,240)"></path>
  <path d="M183,248,127,148,158,140" color="rgb(247,247,247)"></path>
  <path d="M225,219,158,140,251,177" color="rgb(240,240,240)"></path>
  <path d="M251,177,216,122,258,144" color="rgb(236,236,236)"></path>
  <path d="M251,177,158,140,216,122" color="rgb(243,243,243)"></path>
  <path d="M216,122,170,127,175,113" color="rgb(247,247,247)"></path>
  <path d="M216,122,158,140,170,127" color="rgb(248,248,248)"></path>
</svg>
